<?xml version="1.0" encoding="iso-8859-1"?>
<!-- Generator: Adobe Illustrator 19.0.0, SVG Export Plug-In . SVG Version: 6.00 Build 0)  -->
<svg version="1.1" id="Layer_1" xmlns="http://www.w3.org/2000/svg" xmlns:xlink="http://www.w3.org/1999/xlink" x="0px" y="0px"
	 viewBox="0 0 496.166 496.166" style="enable-background:new 0 0 496.166 496.166;" xml:space="preserve">
<path style="fill:#E09D66;" d="M248.079,0C111.074,0,0.004,111.062,0.004,248.083c0,137.005,111.07,248.083,248.075,248.083
	c137.013,0,248.083-111.078,248.083-248.083C496.162,111.062,385.092,0,248.079,0z"/>
<path style="fill:#DD6003;" d="M283.555,289.893V85.081c0-19.555-15.921-35.468-35.468-35.468
	c-19.555,0-35.468,15.913-35.468,35.468v204.812c-28.628,13.656-46.89,42.354-46.89,74.31c0,45.406,36.944,82.343,82.358,82.343
	c45.406,0,82.357-36.937,82.357-82.343C330.444,332.238,312.183,303.541,283.555,289.893z"/>
<g>
	<path style="fill:#B24D02;" d="M283.555,289.893V85.081c0-19.555-15.921-35.468-35.468-35.468
		c-19.555,0-35.468,15.913-35.468,35.468v204.812c-28.628,13.656-46.89,42.354-46.89,74.31c0,45.406,36.944,82.343,82.358,82.343
		c45.406,0,82.357-36.937,82.357-82.343C330.444,332.238,312.183,303.541,283.555,289.893z M248.087,433.317
		c-38.115,0-69.13-31.008-69.13-69.115c0-28.077,16.8-53.163,42.805-63.904c2.471-1.018,4.085-3.443,4.085-6.113v-19.601
		c0.811,0.353,1.691,0.551,2.625,0.551h25.247c3.657,0,6.618-2.96,6.618-6.609c0-3.657-2.961-6.618-6.618-6.618h-25.247
		c-0.934,0-1.813,0.207-2.625,0.559v-24.436c0.811,0.344,1.691,0.551,2.625,0.551h17.711c3.657,0,6.618-2.961,6.618-6.61
		c0-3.656-2.961-6.617-6.618-6.617h-17.711c-0.934,0-1.813,0.206-2.625,0.559v-22.875c0.811,0.352,1.691,0.559,2.625,0.559h25.247
		c3.657,0,6.618-2.961,6.618-6.618c0-3.657-2.961-6.617-6.618-6.617h-25.247c-0.934,0-1.813,0.214-2.625,0.558v-23.168
		c0.811,0.344,1.691,0.551,2.625,0.551h17.711c3.657,0,6.618-2.953,6.618-6.61c0-3.657-2.961-6.617-6.618-6.617h-17.711
		c-0.934,0-1.813,0.206-2.625,0.559v-22.875c0.811,0.352,1.691,0.558,2.625,0.558h25.247c3.657,0,6.618-2.96,6.618-6.617
		c0-3.657-2.961-6.61-6.618-6.61h-25.247c-0.934,0-1.813,0.207-2.625,0.551V97.76c0.811,0.353,1.691,0.559,2.625,0.559h17.711
		c3.657,0,6.618-2.96,6.618-6.617s-2.961-6.618-6.618-6.618h-17.711c-0.934,0-1.813,0.207-2.625,0.559v-0.559
		c0-12.256,9.977-22.232,22.24-22.232c12.256,0,22.232,9.977,22.232,22.232v209.104c0,2.67,1.614,5.096,4.093,6.113
		c26.004,10.733,42.797,35.812,42.797,63.904C317.209,402.31,286.202,433.317,248.087,433.317z"/>
	<path style="fill:#B24D02;" d="M243.741,303.962c-13.862-1.308-30.938,6.832-39.53,15.439c-9.15,9.157-19.669,31.504-16.036,47.104
		c0.711,3.053,3.435,5.11,6.434,5.11c0.497,0,1.002-0.053,1.515-0.168c3.55-0.834,5.769-4.392,4.935-7.949
		c-2.165-9.279,5.21-27.442,12.509-34.74c6.205-6.197,19.624-12.501,28.934-11.613c3.71,0.336,6.87-2.334,7.207-5.968
		C250.053,307.535,247.383,304.314,243.741,303.962z"/>
</g>
<g>
</g>
<g>
</g>
<g>
</g>
<g>
</g>
<g>
</g>
<g>
</g>
<g>
</g>
<g>
</g>
<g>
</g>
<g>
</g>
<g>
</g>
<g>
</g>
<g>
</g>
<g>
</g>
<g>
</g>
</svg>
